<?xml version="1.0" standalone="no"?>
<!DOCTYPE svg PUBLIC "-//W3C//DTD SVG 20010904//EN"
 "http://www.w3.org/TR/2001/REC-SVG-20010904/DTD/svg10.dtd">
<svg version="1.0" xmlns="http://www.w3.org/2000/svg"
 width="239.000000pt" height="211.000000pt" viewBox="0 0 239.000000 211.000000"
 preserveAspectRatio="xMidYMid meet">

<g transform="translate(0.000000,211.000000) scale(0.100000,-0.100000)"
fill="#ffffff" stroke="none">
<path d="M925 2066 c-39 -18 -134 -107 -442 -417 -215 -217 -406 -412 -422
-433 -64 -81 -76 -201 -28 -293 13 -24 187 -209 420 -447 445 -453 454 -460
572 -459 106 1 188 49 243 143 24 39 27 56 27 130 0 64 -5 94 -19 120 -10 19
-91 109 -180 200 l-161 165 620 5 620 5 57 28 c99 49 151 131 152 242 1 122
-65 221 -177 262 -23 8 -203 12 -646 12 l-615 1 160 163 c181 183 205 221 206
322 1 112 -62 209 -166 256 -60 27 -157 25 -221 -5z"/>
</g>
</svg>
